<?xml version="1.0" encoding="UTF-8"?>
<svg enable-background="new 0 0 512 512" style="version:1" viewBox="0 0 512 512" xmlns="http://www.w3.org/2000/svg">viewBox="0 0 512 512"
    style="enable-background:new 0 0 512 512;version:1">
    <style>.a{fill:#FFD164;}.b{fill:#FFC350;}.c{fill:#AA7346;}.d{fill:#7D5046;}.e{fill:#9C6846;}</style>
    <circle cx="256" cy="256" r="256" fill="#FFE17D"/>
    <path class="a" d="m293.2 474.8c-141.4 0-256-114.6-256-256 0-61.2 21.5-117.4 57.4-161.5-57.7 47-94.6 118.5-94.6 198.7 0 141.4 114.6 256 256 256 80.2 0 151.7-36.9 198.6-94.5-44 35.8-100.2 57.3-161.4 57.3z"/>
    <path class="a" d="m181.7 512c9.1 0 16.5-7.4 16.5-16.5s-7.4-16.5-16.5-16.5h8.3c9.1 0 16.5-7.4 16.5-16.5s-7.4-16.5-16.5-16.5h8.3c9.1 0 16.5-7.4 16.5-16.5s-7.4-16.5-16.5-16.5h90.8c9.1 0 16.5-7.4 16.5-16.5s-7.4-16.5-16.5-16.5h-148.7c-13.7 0-24.8-11.1-24.8-24.8v-49.6c0-9.1-7.4-16.5-16.5-16.5s-16.5 7.4-16.5 16.5v40.4c0 11.3-3.8 22.2-10.9 31l-7.7 9.6c-9.4 11.7-14.5 26.3-14.5 41.3v34.6c0 27.4 22.2 49.5 49.5 49.5h82.6z"/>
    <path class="b" d="m198.2 495.5h-99.1c-18.2 0-33-14.8-33-33v-34.6c0-11.2 3.9-22.2 10.9-31l7.7-9.6c9.3-11.7 14.5-26.3 14.5-41.3v-56.9c-9.1 0-16.5 7.4-16.5 16.5v40.4c0 11.3-3.8 22.2-10.9 31l-7.7 9.6c-9.4 11.7-14.5 26.3-14.5 41.3v34.6c0 27.4 22.2 49.5 49.5 49.5h82.6c9.1 0 16.5-7.4 16.5-16.5z"/>
    <path class="b" d="m305.5 396.4h-115.6c-4.6 0-8.3 3.7-8.3 8.3s3.7 8.3 8.3 8.3h99.1c9.2-0.1 16.5-7.5 16.5-16.6z"/>
    <path class="b" d="m173.4 437.7c0 4.6 3.7 8.3 8.3 8.3h16.6c9.1 0 16.5-7.4 16.5-16.5h-33c-4.7-0.1-8.4 3.6-8.4 8.2z"/>
    <path class="b" d="m165.2 470.7c0 4.6 3.7 8.3 8.3 8.3h16.6c9.1 0 16.5-7.4 16.5-16.5h-33.2c-4.5 0-8.2 3.6-8.2 8.2z"/>
    <path class="c" d="m297.3 340.6c-1.6 0-3.1-0.4-4.6-1.1-0.6-0.3-57.2-28.4-119.8-29.9-5.7-0.1-10.2-4.9-10.1-10.6s4.9-10.4 10.6-10.1c67.4 1.5 126.1 30.8 128.6 32.1 5.1 2.6 7.1 8.8 4.6 13.9-1.9 3.7-5.5 5.7-9.3 5.7z"/>
    <path class="c" d="m189.9 134.2c-2.2 0-4.5-0.7-6.4-2.2-1.6-1.2-37.1-28.5-79.8-7.1-5.1 2.6-11.3 0.5-13.8-4.6s-0.5-11.3 4.6-13.9c54.8-27.4 100 7.9 101.9 9.4 4.5 3.6 5.2 10.1 1.6 14.5-2 2.6-5 3.9-8.1 3.9z"/>
    <path class="c" d="m305.5 150.7c-4.8 0-9.1-3.4-10.1-8.3-1.1-5.6 2.5-11 8.1-12.1l82.6-16.5c5.6-1.1 11 2.5 12.1 8.1s-2.5 11-8.1 12.1l-82.6 16.5c-0.6 0.1-1.3 0.2-2 0.2z"/>
    <path class="d" d="m152 208c-11.3-1.4-19.4-11.7-18-23l2-16.4c1.4-11.3 11.7-19.4 23-18s19.4 11.7 18 23l-2 16.4c-1.4 11.4-11.7 19.4-23 18z"/>
    <path class="e" d="m159.1 150.6c-1.4-0.2-2.8-0.2-4.1-0.1l-3.5 28.3c-0.8 6.8 4 13 10.8 13.8s13-4 13.8-10.8l1-8.2c1.3-11.3-6.7-21.6-18-23z"/>
    <path class="d" d="m324.9 226.1c-11.3-1.4-19.4-11.7-18-23l2-16.4c1.4-11.3 11.7-19.4 23-18s19.4 11.7 18 23l-2 16.4c-1.4 11.3-11.7 19.4-23 18z"/>
    <path class="e" d="m332 168.7c-1.4-0.2-2.8-0.2-4.1-0.1l-3.5 28.3c-0.8 6.8 4 13 10.8 13.8s13-4 13.8-10.8l1-8.2c1.3-11.3-6.7-21.6-18-23z"/>
</svg>
